<?xml version="1.0" encoding="UTF-8"?>
<svg id="uuid-480b1d52-eba0-41ea-9b22-8090277fe71a" data-name="Calque 2" xmlns="http://www.w3.org/2000/svg" viewBox="0 0 347.7 111.8">
  <defs>
    <style>
      .uuid-e9e2b7c1-9ea9-419d-9648-4188f6aae630 {
        fill: #1d1d1b;
      }
    </style>
  </defs>
  <g id="uuid-008443a3-7291-428d-bd16-41d96e0a337e" data-name="Calque 1">
    <g>
      <path class="uuid-e9e2b7c1-9ea9-419d-9648-4188f6aae630" d="m3.48,74.78l8.46-10.11c4.64,4.04,10.65,6.81,16.01,6.81,6.15,0,9.16-2.42,9.16-6.29,0-4.1-3.71-5.42-9.4-7.76l-8.47-3.61c-6.75-2.75-13.15-8.3-13.15-17.77,0-10.8,9.65-19.43,23.22-19.43,7.51,0,15.35,2.96,20.97,8.54l-7.44,9.29c-4.29-3.29-8.38-5.1-13.53-5.1s-8.31,2.12-8.31,5.84c0,4,4.26,5.45,9.95,7.72l8.31,3.36c7.96,3.22,12.93,8.52,12.93,17.73,0,10.82-9.02,20.2-24.56,20.2-8.48,0-17.5-3.21-24.14-9.42Z"/>
      <path class="uuid-e9e2b7c1-9ea9-419d-9648-4188f6aae630" d="m62.07,33.38h11.99l1.06,4.88h.36c3.89-3.47,8.95-6.08,14.13-6.08,12.01,0,19.37,9.93,19.37,25.23,0,17.02-10.13,26.79-20.87,26.79-4.27,0-8.28-1.87-11.83-5.18l.49,7.85v14.54h-14.7V33.38Zm31.85,24.19c0-8.9-2.75-13.36-8.62-13.36-3.02,0-5.62,1.35-8.53,4.45v20.37c2.67,2.33,5.43,3.14,7.91,3.14,5.13,0,9.23-4.33,9.23-14.6Z"/>
      <path class="uuid-e9e2b7c1-9ea9-419d-9648-4188f6aae630" d="m116.49,58.21c0-16.5,11.61-26.03,24.17-26.03s24.17,9.53,24.17,26.03-11.61,25.99-24.17,25.99-24.17-9.53-24.17-25.99Zm33.27,0c0-8.59-3.02-14.16-9.1-14.16s-9.1,5.58-9.1,14.16,3.02,14.13,9.1,14.13,9.1-5.54,9.1-14.13Z"/>
      <path class="uuid-e9e2b7c1-9ea9-419d-9648-4188f6aae630" d="m174.26,64.96v-20.04h-6.78v-10.97l7.6-.56,1.72-13.18h12.16v13.18h11.89v11.53h-11.89v19.87c0,5.62,2.55,7.88,6.42,7.88,1.64,0,3.41-.47,4.72-.94l2.32,10.68c-2.64.84-6.21,1.8-11.03,1.8-12.26,0-17.13-7.74-17.13-19.24Z"/>
      <path class="uuid-e9e2b7c1-9ea9-419d-9648-4188f6aae630" d="m210.56,64.96v-20.04h-6.78v-10.97l7.6-.56,1.72-13.18h12.16v13.18h11.89v11.53h-11.89v19.87c0,5.62,2.55,7.88,6.42,7.88,1.64,0,3.41-.47,4.72-.94l2.32,10.68c-2.64.84-6.21,1.8-11.03,1.8-12.26,0-17.13-7.74-17.13-19.24Z"/>
      <path class="uuid-e9e2b7c1-9ea9-419d-9648-4188f6aae630" d="m242.19,58.21c0-16.1,11.48-26.03,23.4-26.03,14.13,0,21.13,10.27,21.13,23.81,0,2.65-.33,5.3-.61,6.5h-29.68c1.32,7.2,6.25,10.5,12.87,10.5,3.75,0,7.13-1.14,10.73-3.25l4.86,8.86c-5.08,3.52-11.72,5.59-17.6,5.59-14.14,0-25.1-9.57-25.1-25.99Zm31.98-5.44c0-5.46-2.38-9.38-8.24-9.38-4.65,0-8.66,3.12-9.66,9.38h17.9Z"/>
      <path class="uuid-e9e2b7c1-9ea9-419d-9648-4188f6aae630" d="m294.32,58.21c0-16.23,10.13-26.03,20.58-26.03,5.47,0,8.81,2.04,12.16,5.18l-.53-7.52V12.94h14.7v70.06h-11.99l-1.06-4.92h-.37c-3.51,3.51-8.41,6.12-13.2,6.12-12.33,0-20.3-9.79-20.3-25.99Zm32.21,9.52v-20.37c-2.6-2.33-5.52-3.14-8.21-3.14-4.76,0-8.94,4.4-8.94,13.83s3.36,14.13,9.06,14.13c3.13,0,5.66-1.19,8.09-4.45Z"/>
    </g>
  </g>
</svg>